<?xml version="1.0" standalone="no"?>
<!DOCTYPE svg PUBLIC "-//W3C//DTD SVG 20010904//EN"
 "http://www.w3.org/TR/2001/REC-SVG-20010904/DTD/svg10.dtd">
<svg version="1.0" xmlns="http://www.w3.org/2000/svg"
 width="1200.000000pt" height="1200.000000pt" viewBox="0 0 1200.000000 1200.000000"
 preserveAspectRatio="xMidYMid meet">

<g transform="translate(0.000000,1200.000000) scale(0.100000,-0.100000)"
fill="#000000" stroke="none">
<path d="M3634 8623 c8 -21 23 -60 35 -87 l21 -48 -22 5 c-13 3 -57 13 -98 23
-54 13 -118 18 -230 18 -135 0 -169 -3 -260 -26 -58 -14 -139 -32 -180 -39
-86 -14 -273 -18 -342 -6 -40 7 -47 6 -42 -7 9 -25 76 -63 151 -88 40 -12 73
-26 73 -30 0 -9 -253 -132 -378 -184 -106 -44 -104 -46 34 -65 98 -13 204 -2
302 32 l57 20 -79 -80 c-69 -69 -76 -80 -58 -85 53 -17 188 24 285 86 26 17
50 28 53 25 10 -10 -25 -100 -61 -157 -22 -35 -30 -56 -22 -58 7 -1 111 45
232 103 l220 106 3 -30 3 -30 59 60 c59 60 138 105 195 111 39 4 42 -15 16
-124 -10 -45 -18 -85 -16 -87 7 -6 64 91 81 138 38 104 53 131 86 151 37 22
86 25 138 7 27 -10 34 -17 32 -33 -2 -16 5 -24 27 -32 52 -18 109 -79 126
-135 8 -28 15 -61 15 -74 0 -25 -15 -31 -23 -10 -3 6 -19 20 -36 30 l-30 18
14 -42 c22 -62 19 -130 -7 -169 -30 -44 -43 -47 -58 -11 -7 17 -18 36 -26 42
-12 10 -14 2 -14 -49 0 -51 -4 -66 -26 -92 -28 -32 -73 -60 -99 -60 -12 0 -15
13 -15 67 0 65 -1 67 -16 44 -9 -13 -19 -43 -22 -67 -3 -29 -11 -48 -22 -54
-26 -14 -375 -75 -630 -110 -491 -68 -738 -154 -1032 -360 -102 -71 -289 -251
-360 -345 -192 -255 -288 -541 -288 -855 0 -152 19 -256 69 -386 91 -236 307
-439 573 -539 l48 -18 0 -96 c0 -75 6 -120 30 -206 16 -60 30 -114 30 -120 0
-6 -21 -9 -50 -7 -55 4 -188 -22 -233 -45 -39 -20 -67 -70 -67 -121 l0 -42 40
26 c51 34 98 34 172 0 31 -15 117 -42 190 -61 73 -19 149 -39 168 -44 19 -6
80 -11 136 -11 90 0 103 -2 120 -21 44 -48 122 -62 207 -37 40 12 40 12 74
-27 18 -21 33 -44 33 -52 0 -7 3 -13 8 -13 13 0 31 38 38 80 4 26 12 40 21 40
8 0 28 8 43 17 37 21 54 9 86 -62 l22 -50 17 39 c22 53 20 137 -6 216 -29 89
-51 122 -100 149 -36 20 -51 23 -113 18 -49 -3 -90 -13 -131 -33 -190 -89
-402 44 -460 288 -21 88 -20 121 3 114 102 -30 171 -33 406 -18 l118 7 20 -28
c11 -15 28 -32 38 -37 11 -6 84 -17 164 -25 200 -20 284 -42 449 -118 48 -22
87 -46 87 -52 0 -14 -28 -26 -115 -50 -75 -21 -117 -52 -143 -107 -21 -43 -40
-138 -28 -138 3 0 30 14 60 30 47 27 57 29 82 19 42 -18 144 -30 264 -33 58
-1 139 -5 181 -10 52 -6 97 -5 141 3 64 12 66 12 93 -13 49 -46 119 -46 221
-1 l54 24 15 -22 c9 -13 15 -45 15 -82 l1 -60 23 27 c21 23 46 101 46 142 0 8
7 16 15 20 27 10 69 -13 117 -66 l46 -52 7 48 c9 58 -11 272 -30 327 -28 80
-92 139 -149 139 -44 0 -137 -41 -220 -97 l-80 -55 -171 27 c-93 15 -194 36
-223 46 -61 20 -155 85 -242 166 -75 69 -76 82 -10 213 63 125 80 196 80 332
0 132 7 153 115 373 310 628 685 932 1125 912 127 -6 211 -27 320 -82 223
-113 459 -373 585 -647 49 -109 145 -362 145 -386 0 -25 -171 -187 -310 -294
-163 -126 -173 -162 -79 -288 74 -98 85 -142 45 -179 -39 -37 -103 -34 -183 9
l-63 33 -45 -17 c-82 -32 -175 -149 -175 -221 0 -28 0 -28 30 13 53 74 108 88
188 48 41 -20 58 -23 132 -19 107 5 141 -12 173 -88 21 -48 23 -50 87 -69 36
-10 90 -24 122 -30 75 -15 223 -112 273 -180 36 -50 78 -73 114 -63 28 7 84
-53 119 -129 15 -32 30 -58 33 -58 11 0 47 75 53 112 6 33 -11 145 -29 191 -6
14 -1 17 34 17 23 0 58 7 78 15 19 8 45 15 57 15 29 0 102 -63 137 -119 l28
-44 11 27 c5 15 10 71 10 125 0 54 3 100 6 103 3 3 31 -10 62 -28 170 -103
427 -122 562 -42 31 18 49 20 176 19 93 -1 165 3 212 13 133 28 269 116 453
294 61 58 115 102 126 102 11 0 42 -8 69 -17 38 -13 67 -35 130 -100 102 -104
118 -107 216 -33 81 61 109 73 143 60 43 -16 33 -56 -26 -111 l-51 -47 4 -95
c2 -77 7 -101 24 -123 26 -36 62 -61 97 -70 l28 -6 -15 37 c-29 67 -22 100 38
179 29 39 62 79 72 88 32 28 220 118 248 118 40 0 76 -22 128 -78 53 -57 63
-84 54 -148 -8 -58 6 -57 66 7 53 57 78 121 78 202 0 43 2 48 18 42 40 -17
102 -17 126 -2 24 16 25 16 59 -36 19 -29 44 -74 56 -102 l22 -50 14 25 c32
57 6 192 -57 295 -24 39 -23 62 3 76 18 9 20 16 14 47 -10 56 -39 104 -90 151
-81 75 -137 87 -214 47 -31 -17 -67 -26 -111 -29 -63 -3 -70 -6 -213 -100
l-147 -98 -103 7 c-80 5 -116 3 -167 -11 l-65 -17 -130 66 c-151 77 -223 127
-229 158 -2 13 -9 72 -15 132 -20 197 -102 385 -234 531 -33 37 -153 146 -266
243 -231 197 -333 297 -391 385 -41 61 -47 81 -30 107 8 12 18 11 77 -8 57
-18 75 -30 111 -72 24 -28 68 -65 98 -81 30 -17 51 -35 48 -40 -3 -5 -35 -9
-72 -10 -56 0 -64 -2 -48 -12 10 -7 65 -42 122 -79 163 -104 232 -120 402 -94
141 21 220 2 300 -72 40 -38 40 -60 0 -93 l-32 -27 50 -25 c28 -14 57 -33 64
-42 13 -15 10 -20 -18 -44 -18 -14 -32 -29 -32 -32 0 -3 29 1 65 9 58 13 135
10 135 -4 0 -3 -11 -24 -24 -47 -24 -42 -49 -117 -39 -117 3 0 21 14 41 31 41
36 107 68 140 69 20 0 22 -4 16 -22 -3 -13 -15 -35 -25 -50 -11 -14 -19 -29
-19 -33 0 -15 85 5 142 33 l60 30 14 -37 c41 -107 81 -148 67 -69 -17 94 -11
124 35 171 49 50 68 101 52 142 -15 41 -14 43 50 75 57 29 60 29 60 10 0 -11
-9 -42 -19 -70 -11 -27 -17 -50 -14 -50 3 0 30 21 60 46 l54 46 50 -9 c27 -6
49 -8 49 -6 0 2 -12 31 -26 66 -34 79 -30 136 14 205 18 27 32 58 32 68 0 11
-14 42 -32 70 -24 37 -32 61 -32 100 -2 62 -25 100 -74 121 -43 18 -121 13
-191 -12 -24 -8 -56 -15 -70 -15 -28 0 -131 46 -131 59 0 4 7 29 16 55 22 63
14 126 -20 171 -15 19 -71 71 -126 115 -107 87 -149 133 -205 225 -40 68 -85
199 -85 251 0 41 -17 44 -50 9 -19 -20 -25 -40 -28 -91 l-4 -66 -62 60 c-77
75 -123 105 -263 176 -69 34 -119 66 -129 82 -10 14 -23 58 -31 97 -18 97 -34
119 -81 115 -33 -3 -40 -8 -65 -55 -33 -63 -43 -64 -131 -24 -186 84 -368 237
-589 496 -61 72 -112 132 -114 134 -2 2 -5 2 -7 0 -2 -2 34 -92 80 -199 108
-251 104 -239 63 -210 -65 47 -233 217 -386 392 -86 98 -158 176 -160 174 -7
-6 58 -160 99 -236 87 -160 174 -272 397 -510 51 -55 91 -100 87 -100 -3 0
-52 18 -108 41 -57 22 -137 53 -178 68 -130 48 -207 107 -298 229 -29 41 -56
72 -58 69 -11 -11 58 -159 113 -244 17 -26 17 -27 -2 -19 -69 29 -162 55 -240
69 -197 34 -196 36 -10 -63 174 -94 209 -116 284 -185 49 -45 134 -160 129
-174 -1 -5 -46 17 -98 51 -128 81 -201 114 -296 132 -90 17 -313 30 -298 17 5
-4 77 -25 159 -45 166 -42 246 -74 337 -138 l61 -43 -89 -6 c-163 -12 -276 -9
-374 11 -52 10 -96 17 -98 15 -2 -2 16 -15 40 -28 68 -40 171 -65 333 -82 169
-18 234 -40 297 -102 34 -33 66 -89 57 -97 -2 -2 -35 -19 -74 -39 -38 -19 -99
-57 -135 -83 l-65 -48 75 -13 c134 -24 126 -13 70 -97 -28 -40 -62 -101 -76
-136 -23 -57 -47 -185 -38 -202 3 -4 27 0 54 8 28 8 54 13 59 10 5 -3 12 -27
16 -53 10 -72 61 -217 105 -302 22 -42 71 -119 110 -171 75 -101 119 -199 141
-308 13 -72 16 -70 55 31 23 61 28 66 39 50 23 -34 47 -118 59 -216 7 -53 15
-100 18 -103 3 -3 15 8 26 23 11 15 38 38 60 51 l40 22 22 -53 c26 -60 31
-143 11 -181 -8 -14 -29 -32 -46 -41 -66 -31 -147 -14 -267 57 -27 15 -48 26
-48 23 0 -2 6 -29 14 -59 16 -60 12 -96 -11 -96 -46 0 -136 85 -177 168 -38
75 -83 215 -116 359 -16 69 -31 128 -34 131 -3 3 -6 -48 -7 -114 -1 -130 -8
-169 -28 -169 -31 0 -62 142 -81 370 -6 72 -15 157 -21 190 -14 85 -50 237
-55 233 -2 -2 -12 -58 -23 -124 -26 -156 -33 -173 -59 -141 -15 18 -41 163
-57 324 -8 79 -22 171 -31 205 -19 77 -94 284 -128 358 l-26 55 6 -140 c5
-121 4 -142 -9 -154 -26 -21 -63 29 -93 128 -41 135 -150 405 -197 484 -42 71
-189 232 -235 256 -29 16 -28 13 49 -89 31 -41 61 -90 67 -108 32 -94 -66
-134 -176 -72 -29 17 -115 91 -192 166 -152 146 -220 196 -335 243 -89 38
-116 40 -55 5 65 -37 109 -82 136 -138 23 -50 21 -74 -8 -92 -30 -19 -115 -2
-289 57 -162 54 -196 62 -281 67 -130 6 -150 -2 -74 -33 92 -38 131 -88 105
-136 -20 -38 -68 -49 -217 -49 -155 0 -250 -18 -343 -66 l-54 -27 52 -23 c39
-17 54 -29 59 -49 11 -44 -27 -72 -134 -99 -105 -27 -203 -71 -276 -123 -68
-49 -206 -166 -206 -175 0 -9 37 -2 132 22 85 22 98 15 67 -39 -18 -32 -45
-55 -118 -100 -114 -71 -221 -160 -316 -267 l-69 -77 34 7 c72 16 106 17 133
7 15 -6 27 -16 27 -22 0 -16 -77 -89 -94 -89 -34 0 -138 -65 -188 -118 -59
-62 -91 -110 -67 -99 8 3 37 16 65 28 58 25 84 21 84 -13 0 -76 -142 -187
-337 -265 l-95 -37 58 -13 c121 -28 133 -63 52 -147 -43 -44 -65 -58 -112 -71
-70 -21 -149 -16 -243 13 -35 11 -63 18 -63 15 0 -2 32 -40 70 -84 39 -43 70
-83 70 -88 0 -15 -83 -24 -163 -19 -139 9 -192 57 -262 238 -29 75 -59 135
-77 154 -22 23 -28 26 -23 11 4 -11 16 -44 26 -72 23 -63 25 -172 5 -211 -31
-59 -107 -100 -161 -86 -45 11 -60 47 -60 146 1 101 3 100 -93 46 -51 -28 -55
-28 -68 -11 -45 60 -57 188 -25 252 20 38 93 111 112 111 5 0 7 5 3 11 -7 12
-105 7 -153 -7 -23 -7 -24 -6 -17 37 16 103 82 169 169 169 l50 0 -19 21 c-24
27 -87 59 -114 59 -18 0 -20 4 -14 23 15 49 83 121 145 153 17 9 58 21 91 28
l60 12 -72 53 c-71 52 -72 52 -54 73 34 37 214 116 324 143 58 14 115 25 128
25 37 0 25 14 -28 33 -58 21 -110 61 -110 86 0 25 28 48 80 67 34 12 102 17
275 22 l230 7 -70 36 c-38 20 -81 47 -95 59 l-25 21 45 -5 c94 -12 318 -19
373 -12 l58 8 -38 27 c-21 16 -47 38 -57 50 l-19 21 119 0 c109 0 244 11 318
26 l28 6 -39 18 c-38 17 -53 35 -53 64 0 8 38 16 121 25 241 25 378 78 477
186 109 120 157 254 134 383 -18 109 -80 220 -175 315 -46 46 -107 95 -137
111 -30 16 -97 60 -148 98 -50 37 -94 68 -97 68 -2 0 2 -17 9 -37z m2452
-3384 c137 -25 264 -120 338 -251 20 -36 36 -67 36 -70 0 -8 -73 -17 -184 -24
-81 -6 -94 -9 -128 -37 -32 -26 -50 -32 -101 -35 -58 -3 -65 -1 -100 28 -80
68 -119 210 -83 304 20 51 32 63 83 82 47 16 64 17 139 3z"/>
</g>
</svg>
